<?xml version="1.0" encoding="utf-8"?>
<!-- Generator: Adobe Illustrator 18.0.0, SVG Export Plug-In . SVG Version: 6.00 Build 0)  -->
<!DOCTYPE svg PUBLIC "-//W3C//DTD SVG 1.1//EN" "http://www.w3.org/Graphics/SVG/1.1/DTD/svg11.dtd">
<svg version="1.1" id="Layer_2" xmlns="http://www.w3.org/2000/svg" xmlns:xlink="http://www.w3.org/1999/xlink" x="0px" y="0px"
	 width="1035.9px" height="1031.6px" viewBox="0 0 1035.9 1031.6" enable-background="new 0 0 1035.9 1031.6" xml:space="preserve">
<g>
	
		<linearGradient id="SVGID_1_" gradientUnits="userSpaceOnUse" x1="507.2549" y1="-10.3296" x2="507.2549" y2="1026.8671" gradientTransform="matrix(0.8928 0.4505 -0.4505 0.8928 280.0367 -179.5468)">
		<stop  offset="0" style="stop-color:#C3D18E"/>
		<stop  offset="1" style="stop-color:#79901D"/>
	</linearGradient>
	<path fill="url(#SVGID_1_)" d="M1025.7,503.7c-7.1-14.2-14.8-27.9-23.1-40.9c-21.8-34.6-34.8-90.9-30.7-131.6
		c1.6-15.4,2.3-31.1,2.3-47c-0.1-40.8-33.5-91.8-71-108.1c-14.6-6.3-29.4-11.8-44.1-16.5c-38.9-12.4-85.1-47.2-108-81
		c-8.7-12.8-18.2-25.4-28.4-37.7C696.6,9.5,638.1-8,598.9,3.6c-15.3,4.6-30.1,9.8-44.4,15.7c-37.8,15.5-95.6,18.7-134.8,7.4
		c-14.9-4.3-30.3-7.9-46.1-10.8c-40.2-7.3-96.2,17-118.7,51.2c-8.8,13.4-16.8,27-24,40.7c-18.9,36.2-61.1,75.9-98.4,92.5
		c-14.2,6.3-28.3,13.5-42.2,21.4c-35.5,20.3-62.9,74.6-58.1,115.1c1.9,16,4.5,31.5,7.8,46.7c8.7,39.9,1.9,97.4-16,134.1
		c-6.8,13.9-13,28.5-18.5,43.5c-14.1,38.3-0.3,97.8,29.4,125.9c11.7,11,23.7,21.2,36,30.7c32.4,24.8,64.2,73.3,74.1,112.9
		c3.8,15,8.4,30,13.8,45c13.9,38.4,62.7,75.1,103.5,77.6c16,1,31.7,1.1,47.2,0.5c40.8-1.7,96.3,14.8,129.3,38.7
		c12.5,9.1,25.7,17.6,39.5,25.7c35.3,20.5,96.2,17.1,129.1-7.1c12.8-9.5,25-19.4,36.5-29.8c30.3-27.4,83.3-50.5,124.1-53.5
		c15.4-1.1,30.9-3,46.6-5.8c40.2-7.1,84.7-48.8,94.2-88.6c3.7-15.5,6.6-30.9,8.7-46.1c5.5-40.5,31.8-92.4,61-120.9
		c11-10.7,21.7-22.2,31.9-34.3C1036.7,600.8,1044,540.2,1025.7,503.7z"/>
</g>
<g>
	<path fill="#F8F7F5" d="M176.8,425.5c-2.9,14.3,4.8,21.8,12.7,24.2c10.1,3.1,21.2-1.1,24.5-11.6c4.4-14.3-4-19.7-19.3-31.5
		c-9.4-7.4-29.7-20.8-20.8-50c6.8-22.1,29.3-34.3,52.8-27.1c16.1,4.9,36.3,23.4,29,52.1l-26.3-8c2.7-12.7-3.9-18.2-10.8-20.3
		c-8.1-2.5-16,1.5-18.6,9.7c-3.7,12,4.5,17.4,17.2,26.4c10.3,7.2,32.5,23.7,23.3,53.9c-9.2,30-36.8,37.1-58.5,30.5
		c-17.8-5.4-40-25.4-32.2-56.4L176.8,425.5z"/>
	<path fill="#F8F7F5" d="M288.8,351.5l34.9,10.7c14.8,4.5,27.6,8.4,37.3,23.5c6.5,11,7.3,23,3.4,35.9c-4,12.9-11.3,22.4-22.9,27.9
		c-16.5,7.1-29.3,3.2-44.1-1.4l-9.2-2.8l-16.2,52.9l-25.7-7.9L288.8,351.5z M295.6,421.2l8.3,2.5c11.1,3.4,29.3,8.1,34.9-10.1
		c5.6-18.2-11.8-24.3-22.3-27.5l-9.2-2.8L295.6,421.2z"/>
	<path fill="#F8F7F5" d="M391.7,382.9l74.6,22.8l-7.3,24l-48.9-15l-10.4,33.9l46.9,14.3l-7.3,24l-46.9-14.3l-10,32.8l48.9,15
		l-7.3,24l-74.6-22.8L391.7,382.9z"/>
	<path fill="#F8F7F5" d="M590.1,553.1c-18.7,22.2-50.2,30-76.8,21.8c-40.1-12.3-62.1-55.7-50.1-94.9c11.7-38.3,53.6-61.9,93.7-49.7
		c23.1,7,48.5,27.9,52.5,62.4l-29.3-8.9c-6.4-14.5-16.1-25-31.5-29.7c-22.5-6.9-51.4,6.4-59.9,34.2c-8,26.1,6.8,55,31.3,62.5
		c18.6,5.7,32-2.1,40.2-6.8L590.1,553.1z"/>
	<path fill="#F8F7F5" d="M637.6,458.1l25.7,7.9l-42.4,138.8l-25.7-7.9L637.6,458.1z"/>
	<path fill="#F8F7F5" d="M735.6,488l20.1,6.1l15.7,156.5l-28.3-8.7l-3.9-40.3l-49.7-15.2l-25.8,31.3l-28.3-8.7L735.6,488z
		 M705.6,565l31.9,9.7l-2.7-47.4l-0.4-0.1L705.6,565z"/>
	<path fill="#F8F7F5" d="M828.8,516.5l25.7,7.9l-35.1,114.8l42.4,13l-7.3,24l-68.1-20.8L828.8,516.5z"/>
</g>
</svg>
